<svg width="21" height="20" viewBox="0 0 21 20" fill="none" xmlns="http://www.w3.org/2000/svg">
<path d="M14.4199 6.95483C16.0112 6.95483 17.5373 7.58698 18.6626 8.71219C19.7878 9.83741 20.4199 11.3635 20.4199 12.9548V19.9548H16.4199V12.9548C16.4199 12.4244 16.2092 11.9157 15.8341 11.5406C15.4591 11.1655 14.9504 10.9548 14.4199 10.9548C13.8895 10.9548 13.3808 11.1655 13.0057 11.5406C12.6306 11.9157 12.4199 12.4244 12.4199 12.9548V19.9548H8.41992V12.9548C8.41992 11.3635 9.05206 9.83741 10.1773 8.71219C11.3025 7.58698 12.8286 6.95483 14.4199 6.95483Z" fill="#19160C"/>
<path d="M4.41992 7.95483H0.419922V19.9548H4.41992V7.95483Z" fill="#19160C"/>
<path d="M2.41992 4.95483C3.52449 4.95483 4.41992 4.0594 4.41992 2.95483C4.41992 1.85026 3.52449 0.954834 2.41992 0.954834C1.31535 0.954834 0.419922 1.85026 0.419922 2.95483C0.419922 4.0594 1.31535 4.95483 2.41992 4.95483Z" fill="#19160C"/>
</svg>
