<svg width="23" height="19" viewBox="0 0 23 19" fill="none" xmlns="http://www.w3.org/2000/svg">
<path d="M22.4199 0.492966C21.4623 1.16844 20.402 1.68508 19.2799 2.02297C18.6777 1.33048 17.8773 0.839658 16.987 0.616892C16.0967 0.394126 15.1594 0.450161 14.302 0.777419C13.4446 1.10468 12.7084 1.68737 12.1929 2.44668C11.6774 3.206 11.4076 4.1053 11.4199 5.02297V6.02297C9.66256 6.06853 7.9212 5.67878 6.35093 4.88841C4.78067 4.09805 3.43024 2.9316 2.41992 1.49297C2.41992 1.49297 -1.58008 10.493 7.41992 14.493C5.36045 15.8909 2.90708 16.5919 0.419922 16.493C9.41992 21.493 20.4199 16.493 20.4199 4.99297C20.419 4.71442 20.3922 4.43656 20.3399 4.16297C21.3605 3.15646 22.0807 1.88568 22.4199 0.492966Z" fill="#19160C"/>
</svg>
