<svg width="71" height="58" viewBox="0 0 71 58" fill="none" xmlns="http://www.w3.org/2000/svg">
<g opacity="0.5">
<path d="M1.12305 40.423C0.510422 48.9143 6.94471 56.2903 15.4948 56.8983C24.045 57.5063 31.4725 51.1159 32.0851 42.6246C32.6978 34.1333 26.2635 26.7574 17.7132 26.1494C15.9561 26.0245 14.2521 26.2091 12.6388 26.6332C17.5543 7.03753 34.0589 -4.65127 18.8552 4.85365C1.99655 15.3936 1.1398 39.9519 1.12533 40.4021C1.12483 40.4091 1.12361 40.4152 1.12305 40.423Z" fill="#F6D876"/>
</g>
<g opacity="0.5">
<path d="M36.1231 40.423C35.5104 48.9143 41.9447 56.2903 50.4948 56.8983C59.045 57.5063 66.4725 51.1159 67.0851 42.6246C67.6978 34.1333 61.2635 26.7574 52.7132 26.1494C50.9561 26.0245 49.2521 26.2091 47.6388 26.6332C52.5543 7.03753 69.0589 -4.65127 53.8552 4.85365C36.9966 15.3936 36.1398 39.9519 36.1253 40.4021C36.1248 40.4091 36.1236 40.4152 36.1231 40.423Z" fill="#F6D876"/>
</g>
</svg>
