<svg width="71" height="58" viewBox="0 0 71 58" fill="none" xmlns="http://www.w3.org/2000/svg">
<g opacity="0.5">
<path d="M68.8784 17.5762C69.4911 9.08483 63.0568 1.70882 54.5067 1.10085C45.9565 0.49287 38.529 6.8832 37.9164 15.3745C37.3037 23.8659 43.738 31.2417 52.2882 31.8497C54.0454 31.9747 55.7494 31.7901 57.3627 31.3659C52.4472 50.9616 35.9426 62.6504 51.1463 53.1455C68.0049 42.6056 68.8617 18.0472 68.8761 17.5971C68.8767 17.5901 68.8779 17.5839 68.8784 17.5762Z" fill="#F6D876"/>
</g>
<g opacity="0.5">
<path d="M33.8784 17.5762C34.4911 9.08483 28.0568 1.70882 19.5067 1.10085C10.9565 0.49287 3.52898 6.8832 2.91635 15.3745C2.30372 23.8659 8.73803 31.2417 17.2882 31.8497C19.0454 31.9747 20.7494 31.7901 22.3627 31.3659C17.4472 50.9616 0.942575 62.6504 16.1463 53.1455C33.0049 42.6056 33.8617 18.0472 33.8761 17.5971C33.8767 17.5901 33.8779 17.5839 33.8784 17.5762Z" fill="#F6D876"/>
</g>
</svg>
