<svg width="68" height="51" viewBox="0 0 68 51" fill="none" xmlns="http://www.w3.org/2000/svg">
<path d="M58.1993 31.6812H20.9771V29.8293C20.9771 25.7386 17.6439 22.4219 13.5327 22.4219H7.94933C3.83813 22.4219 0.504883 25.7386 0.504883 29.8293V35.3849C0.504883 39.4756 3.83813 42.7923 7.94933 42.7923H60.0604C64.1716 42.7923 67.5049 39.4756 67.5049 35.3849V31.6812H58.1993Z" fill="#99AAB5"/>
<path d="M19.116 7.60712H13.8044C7.94933 7.60712 6.08822 11.3108 6.08822 11.3108L0.504883 22.346V31.6812H24.6993V13.1627C24.6993 10.0942 22.1999 7.60712 19.116 7.60712Z" fill="#FFCC4D"/>
<path d="M17.2549 22.422H4.22708L7.9493 15.0146C7.9493 15.0146 9.81042 11.3109 13.5326 11.3109H17.2549V22.422Z" fill="#55ACEE"/>
<path d="M11.6715 50.1997C15.783 50.1997 19.116 46.8833 19.116 42.7923C19.116 38.7013 15.783 35.3849 11.6715 35.3849C7.56007 35.3849 4.22708 38.7013 4.22708 42.7923C4.22708 46.8833 7.56007 50.1997 11.6715 50.1997Z" fill="#292F33"/>
<path d="M11.6716 46.496C13.7273 46.496 15.3938 44.8378 15.3938 42.7923C15.3938 40.7468 13.7273 39.0886 11.6716 39.0886C9.61584 39.0886 7.94934 40.7468 7.94934 42.7923C7.94934 44.8378 9.61584 46.496 11.6716 46.496Z" fill="#CCD6DD"/>
<path d="M56.3382 50.1997C60.4497 50.1997 63.7827 46.8833 63.7827 42.7923C63.7827 38.7013 60.4497 35.3849 56.3382 35.3849C52.2268 35.3849 48.8938 38.7013 48.8938 42.7923C48.8938 46.8833 52.2268 50.1997 56.3382 50.1997Z" fill="#292F33"/>
<path d="M56.3383 46.496C58.394 46.496 60.0605 44.8378 60.0605 42.7923C60.0605 40.7468 58.394 39.0886 56.3383 39.0886C54.2825 39.0886 52.616 40.7468 52.616 42.7923C52.616 44.8378 54.2825 46.496 56.3383 46.496Z" fill="#CCD6DD"/>
<path d="M37.7271 50.1997C41.8386 50.1997 45.1715 46.8833 45.1715 42.7923C45.1715 38.7013 41.8386 35.3849 37.7271 35.3849C33.6156 35.3849 30.2827 38.7013 30.2827 42.7923C30.2827 46.8833 33.6156 50.1997 37.7271 50.1997Z" fill="#292F33"/>
<path d="M37.7271 46.496C39.7828 46.496 41.4493 44.8378 41.4493 42.7923C41.4493 40.7468 39.7828 39.0886 37.7271 39.0886C35.6714 39.0886 34.0049 40.7468 34.0049 42.7923C34.0049 44.8378 35.6714 46.496 37.7271 46.496Z" fill="#CCD6DD"/>
<path d="M60.0604 0.199707H35.866C31.7548 0.199707 28.4215 3.51637 28.4215 7.60711V31.6812H67.5049V7.60711C67.5049 3.51637 64.1716 0.199707 60.0604 0.199707Z" fill="#77B255"/>
</svg>
