<svg width="51" height="51" viewBox="0 0 51 51" fill="none" xmlns="http://www.w3.org/2000/svg">
<path d="M50.4404 25.1997C50.4404 39.0066 39.2473 50.1997 25.4404 50.1997C11.6334 50.1997 0.440369 39.0066 0.440369 25.1997C0.440369 11.3928 11.6334 0.199707 25.4404 0.199707C39.2473 0.199707 50.4404 11.3928 50.4404 25.1997Z" fill="#E1E8ED"/>
<path d="M42.1071 25.1997C42.1071 34.4053 34.646 41.8664 25.4404 41.8664C16.2349 41.8664 8.77377 34.4053 8.77377 25.1997C8.77377 15.9942 16.2349 8.53308 25.4404 8.53308C34.646 8.53308 42.1071 15.9942 42.1071 25.1997Z" fill="#CCD6DD"/>
<path d="M40.7182 25.1997C40.7182 33.6372 33.8779 40.4775 25.4404 40.4775C17.0015 40.4775 10.1626 33.6372 10.1626 25.1997C10.1626 16.7608 17.0029 9.92194 25.4404 9.92194C33.8779 9.92194 40.7182 16.7608 40.7182 25.1997Z" fill="#E1E8ED"/>
<path d="M1.82926 2.97748C2.59632 2.97748 3.21815 2.35566 3.21815 1.5886C3.21815 0.821534 2.59632 0.199707 1.82926 0.199707C1.0622 0.199707 0.440369 0.821534 0.440369 1.5886C0.440369 2.35566 1.0622 2.97748 1.82926 2.97748Z" fill="#99AAB5"/>
<path d="M0.440369 1.58862H3.21815V11.3108H0.440369V1.58862Z" fill="#99AAB5"/>
<path d="M7.38483 2.97748C8.15189 2.97748 8.77372 2.35566 8.77372 1.5886C8.77372 0.821534 8.15189 0.199707 7.38483 0.199707C6.61777 0.199707 5.99594 0.821534 5.99594 1.5886C5.99594 2.35566 6.61777 2.97748 7.38483 2.97748Z" fill="#99AAB5"/>
<path d="M5.99594 1.58862H8.77372V11.3108H5.99594V1.58862Z" fill="#99AAB5"/>
<path d="M12.9404 2.97748C13.7075 2.97748 14.3293 2.35566 14.3293 1.5886C14.3293 0.821534 13.7075 0.199707 12.9404 0.199707C12.1734 0.199707 11.5515 0.821534 11.5515 1.5886C11.5515 2.35566 12.1734 2.97748 12.9404 2.97748Z" fill="#99AAB5"/>
<path d="M11.5515 1.58862H14.3293V11.3108H11.5515V1.58862ZM4.60706 19.6442H10.1626V47.422H4.60706V19.6442Z" fill="#99AAB5"/>
<path d="M7.38483 50.1997C8.91896 50.1997 10.1626 48.956 10.1626 47.4219C10.1626 45.8878 8.91896 44.6441 7.38483 44.6441C5.85071 44.6441 4.60706 45.8878 4.60706 47.4219C4.60706 48.956 5.85071 50.1997 7.38483 50.1997Z" fill="#99AAB5"/>
<path d="M11.5515 11.3109C11.5515 12.0775 10.9293 12.6997 10.1626 12.6997C9.39592 12.6997 8.7737 12.0775 8.7737 11.3109H5.99592C5.99592 12.0775 5.3737 12.6997 4.60704 12.6997C3.84037 12.6997 3.21815 12.0775 3.21815 11.3109H0.440369C0.440369 16.6803 1.82926 21.0331 7.38481 21.0331C12.9404 21.0331 14.3293 16.6803 14.3293 11.3109H11.5515Z" fill="#99AAB5"/>
<path d="M1.82926 12.6997C2.59632 12.6997 3.21815 12.0779 3.21815 11.3108C3.21815 10.5438 2.59632 9.92194 1.82926 9.92194C1.0622 9.92194 0.440369 10.5438 0.440369 11.3108C0.440369 12.0779 1.0622 12.6997 1.82926 12.6997Z" fill="#99AAB5"/>
<path d="M7.38483 12.6997C8.15189 12.6997 8.77372 12.0779 8.77372 11.3108C8.77372 10.5438 8.15189 9.92194 7.38483 9.92194C6.61777 9.92194 5.99594 10.5438 5.99594 11.3108C5.99594 12.0779 6.61777 12.6997 7.38483 12.6997Z" fill="#99AAB5"/>
<path d="M12.9404 12.6997C13.7075 12.6997 14.3293 12.0779 14.3293 11.3108C14.3293 10.5438 13.7075 9.92194 12.9404 9.92194C12.1734 9.92194 11.5515 10.5438 11.5515 11.3108C11.5515 12.0779 12.1734 12.6997 12.9404 12.6997Z" fill="#99AAB5"/>
<path d="M42.1069 19.6442H47.6625V47.422H42.1069V19.6442Z" fill="#99AAB5"/>
<path d="M44.8847 50.1997C46.4188 50.1997 47.6625 48.956 47.6625 47.4219C47.6625 45.8878 46.4188 44.6441 44.8847 44.6441C43.3506 44.6441 42.1069 45.8878 42.1069 47.4219C42.1069 48.956 43.3506 50.1997 44.8847 50.1997Z" fill="#99AAB5"/>
<path d="M44.8848 0.199707C46.2736 0.199707 47.6625 1.5886 47.6625 4.36637V26.5886C47.6625 26.5886 37.9403 29.3664 37.9403 15.4775C37.9403 7.14415 42.107 0.199707 44.8848 0.199707Z" fill="#99AAB5"/>
</svg>
