<svg width="51" height="51" viewBox="0 0 51 51" fill="none" xmlns="http://www.w3.org/2000/svg">
<path d="M25.2695 50.1997C39.0766 50.1997 50.2695 39.0068 50.2695 25.1997C50.2695 11.3926 39.0766 0.199707 25.2695 0.199707C11.4624 0.199707 0.269531 11.3926 0.269531 25.1997C0.269531 39.0068 11.4624 50.1997 25.2695 50.1997Z" fill="#FFCC4D"/>
<path d="M9.99015 23.8108C9.78182 23.8108 9.56932 23.7636 9.3707 23.665C8.68459 23.3219 8.40682 22.4872 8.74987 21.8011C8.82209 21.6552 10.5804 18.2552 15.5471 18.2552C20.5151 18.2552 22.2721 21.6566 22.3443 21.8011C22.6874 22.4872 22.4082 23.3219 21.7235 23.665C21.0415 24.008 20.2165 23.733 19.8679 23.0594C19.8068 22.9469 18.7138 21.033 15.5471 21.033C12.329 21.033 11.2429 23.0233 11.2332 23.0427C10.9901 23.5302 10.4999 23.8108 9.99015 23.8108V23.8108ZM40.5471 23.8108C40.7554 23.8108 40.9679 23.7636 41.1665 23.665C41.8526 23.3219 42.1304 22.4872 41.7874 21.8011C41.7151 21.6552 39.9568 18.2552 34.9901 18.2552C30.0221 18.2552 28.2651 21.6566 28.1929 21.8011C27.8499 22.4872 28.129 23.3219 28.8138 23.665C29.4957 24.008 30.3207 23.733 30.6693 23.0594C30.7304 22.9469 31.8235 21.033 34.9901 21.033C38.2082 21.033 39.2943 23.0233 39.304 23.0427C39.5471 23.5302 40.0374 23.8108 40.5471 23.8108V23.8108ZM41.2457 32.8664C41.6943 31.8261 41.886 31.1205 41.8929 31.0927C42.079 30.3511 41.629 29.5997 40.886 29.4122C40.1415 29.2233 39.3901 29.6733 39.1985 30.4164C39.0957 30.8261 36.4929 40.4775 25.2693 40.4775C14.0457 40.4775 11.4429 30.8261 11.3388 30.415C11.1471 29.6733 10.3957 29.2233 9.65126 29.4108C8.90959 29.5983 8.45959 30.3497 8.64432 31.0914C8.67487 31.2136 11.8401 43.2552 25.2693 43.2552C27.561 43.2552 29.5332 42.8858 31.2624 42.3039C37.2763 40.2789 40.1151 35.4844 41.2457 32.8664V32.8664Z" fill="#664500"/>
<path d="M45.2792 37.2568L41.1737 33.0192C41.1737 33.0192 40.2292 32.4109 39.4056 33.8081C38.3223 35.6443 36.5237 37.8845 33.9417 39.6012C32.857 40.322 30.9709 41.2526 30.1959 41.4318C29.1751 41.6665 29.657 42.7706 29.657 42.7706C30.4695 42.5942 31.1167 42.3526 31.1167 42.3526L31.5279 42.7637L35.314 46.5498C37.714 48.9498 42.2584 49.3276 45.0362 46.5498C47.814 43.772 47.6806 39.6581 45.2792 37.2568V37.2568Z" fill="#E75B70"/>
<path d="M41.8185 43.3582C42.1143 43.0623 42.1143 42.5832 41.8185 42.2873L36.7782 37.2471L35.6726 38.286L40.7462 43.3596C41.0421 43.654 41.5226 43.654 41.8185 43.3582V43.3582Z" fill="#DE3146"/>
</svg>
